<svg xmlns="http://www.w3.org/2000/svg" xmlns:xlink="http://www.w3.org/1999/xlink" width="500" zoomAndPan="magnify" viewBox="0 0 375 374.999991" height="500" preserveAspectRatio="xMidYMid meet" version="1.0"><defs><clipPath id="54532c9a35"><path d="M 45.046875 45.046875 L 329.832031 45.046875 L 329.832031 329.832031 L 45.046875 329.832031 Z M 45.046875 45.046875 " clip-rule="nonzero"/></clipPath><clipPath id="7dc37fc1b5"><path d="M 98.226562 110 L 180 110 L 180 265 L 98.226562 265 Z M 98.226562 110 " clip-rule="nonzero"/></clipPath><clipPath id="904a2fa33d"><path d="M 231 110 L 276.773438 110 L 276.773438 265 L 231 265 Z M 231 110 " clip-rule="nonzero"/></clipPath></defs><g clip-path="url(#54532c9a35)"><path fill="#000000" d="M 187.484375 45.046875 C 226.820312 45.046875 262.425781 60.988281 288.203125 86.765625 C 313.980469 112.542969 329.925781 148.152344 329.925781 187.484375 C 329.925781 226.816406 313.980469 262.425781 288.203125 288.203125 C 262.425781 313.980469 226.820312 329.925781 187.484375 329.925781 C 148.152344 329.925781 112.542969 313.980469 86.765625 288.203125 C 60.988281 262.425781 45.046875 226.816406 45.046875 187.484375 C 45.046875 148.152344 60.988281 112.542969 86.765625 86.765625 C 112.542969 60.988281 148.152344 45.046875 187.484375 45.046875 Z M 277.011719 97.957031 C 254.105469 75.042969 222.449219 60.875 187.484375 60.875 C 152.523438 60.875 120.867188 75.042969 97.957031 97.957031 C 75.042969 120.867188 60.875 152.519531 60.875 187.484375 C 60.875 222.449219 75.042969 254.105469 97.957031 277.011719 C 120.867188 299.925781 152.523438 314.097656 187.484375 314.097656 C 222.449219 314.097656 254.105469 299.925781 277.011719 277.011719 C 299.925781 254.105469 314.097656 222.449219 314.097656 187.484375 C 314.097656 152.519531 299.925781 120.867188 277.011719 97.957031 " fill-opacity="1" fill-rule="nonzero"/></g><g clip-path="url(#7dc37fc1b5)"><path fill="#000000" d="M 174.871094 111.183594 C 174.144531 110.90625 173.394531 110.742188 172.617188 110.691406 C 171.839844 110.640625 171.074219 110.707031 170.320312 110.890625 C 169.5625 111.074219 168.851562 111.363281 168.183594 111.761719 C 167.515625 112.160156 166.921875 112.648438 166.398438 113.226562 L 134.019531 149.226562 L 106.640625 149.226562 C 106.136719 149.226562 105.636719 149.277344 105.140625 149.375 C 104.644531 149.476562 104.164062 149.621094 103.695312 149.816406 C 103.226562 150.007812 102.785156 150.246094 102.363281 150.527344 C 101.941406 150.808594 101.554688 151.128906 101.195312 151.488281 C 100.839844 151.84375 100.519531 152.234375 100.238281 152.65625 C 99.957031 153.074219 99.722656 153.519531 99.527344 153.988281 C 99.332031 154.457031 99.1875 154.9375 99.089844 155.433594 C 98.992188 155.929688 98.941406 156.429688 98.941406 156.9375 L 98.941406 222.464844 C 98.941406 222.972656 98.992188 223.472656 99.089844 223.96875 C 99.1875 224.464844 99.332031 224.945312 99.527344 225.414062 C 99.722656 225.882812 99.957031 226.328125 100.238281 226.746094 C 100.519531 227.167969 100.839844 227.558594 101.195312 227.914062 C 101.554688 228.273438 101.941406 228.59375 102.363281 228.875 C 102.785156 229.15625 103.226562 229.394531 103.695312 229.585938 C 104.164062 229.78125 104.644531 229.925781 105.140625 230.027344 C 105.636719 230.125 106.136719 230.171875 106.640625 230.171875 L 134.25 230.171875 L 166.632812 262.589844 C 167.167969 263.132812 167.773438 263.585938 168.445312 263.949219 C 169.117188 264.308594 169.828125 264.566406 170.574219 264.71875 C 171.324219 264.871094 172.078125 264.910156 172.835938 264.835938 C 173.59375 264.761719 174.328125 264.578125 175.035156 264.289062 C 175.738281 263.996094 176.386719 263.609375 176.976562 263.125 C 177.566406 262.640625 178.074219 262.082031 178.5 261.449219 C 178.925781 260.8125 179.246094 260.128906 179.46875 259.398438 C 179.691406 258.667969 179.800781 257.917969 179.800781 257.15625 L 179.800781 118.390625 C 179.800781 117.613281 179.6875 116.851562 179.457031 116.105469 C 179.226562 115.359375 178.894531 114.664062 178.453125 114.023438 C 178.011719 113.378906 177.488281 112.816406 176.878906 112.332031 C 176.265625 111.847656 175.597656 111.464844 174.871094 111.183594 Z M 164.398438 238.539062 L 142.875 216.992188 C 142.152344 216.273438 141.320312 215.722656 140.378906 215.335938 C 139.441406 214.949219 138.460938 214.753906 137.445312 214.753906 L 114.34375 214.753906 L 114.34375 164.648438 L 137.445312 164.648438 C 138.539062 164.648438 139.585938 164.429688 140.585938 163.984375 C 141.582031 163.542969 142.449219 162.914062 143.183594 162.101562 L 164.398438 138.472656 L 164.398438 238.691406 Z M 164.398438 238.539062 " fill-opacity="1" fill-rule="nonzero"/></g><path fill="#000000" d="M 224.234375 133.808594 C 223.875 133.453125 223.484375 133.132812 223.0625 132.855469 C 222.640625 132.574219 222.195312 132.335938 221.726562 132.144531 C 221.257812 131.953125 220.777344 131.804688 220.28125 131.710938 C 219.78125 131.613281 219.28125 131.5625 218.773438 131.566406 C 218.269531 131.566406 217.765625 131.617188 217.269531 131.71875 C 216.773438 131.820312 216.292969 131.96875 215.828125 132.164062 C 215.359375 132.359375 214.914062 132.597656 214.496094 132.878906 C 214.074219 133.164062 213.6875 133.484375 213.332031 133.84375 C 212.972656 134.203125 212.65625 134.59375 212.375 135.015625 C 212.097656 135.4375 211.859375 135.886719 211.667969 136.355469 C 211.476562 136.824219 211.332031 137.304688 211.234375 137.804688 C 211.140625 138.300781 211.089844 138.804688 211.09375 139.308594 C 211.09375 139.816406 211.148438 140.316406 211.246094 140.816406 C 211.347656 141.3125 211.496094 141.792969 211.691406 142.261719 C 211.886719 142.726562 212.128906 143.171875 212.410156 143.59375 C 212.695312 144.011719 213.015625 144.402344 213.375 144.757812 C 214.796875 146.167969 216.144531 147.644531 217.421875 149.1875 C 218.695312 150.730469 219.894531 152.332031 221.011719 153.992188 C 222.128906 155.65625 223.164062 157.367188 224.109375 159.128906 C 225.058594 160.894531 225.917969 162.699219 226.6875 164.550781 C 227.460938 166.398438 228.136719 168.28125 228.722656 170.195312 C 229.304688 172.113281 229.792969 174.050781 230.1875 176.015625 C 230.578125 177.980469 230.875 179.960938 231.070312 181.953125 C 231.269531 183.945312 231.367188 185.945312 231.367188 187.949219 C 231.367188 189.949219 231.269531 191.949219 231.070312 193.941406 C 230.875 195.933594 230.578125 197.914062 230.1875 199.878906 C 229.792969 201.84375 229.304688 203.78125 228.722656 205.699219 C 228.136719 207.613281 227.460938 209.496094 226.6875 211.34375 C 225.917969 213.195312 225.058594 215 224.109375 216.765625 C 223.164062 218.527344 222.128906 220.242188 221.011719 221.902344 C 219.894531 223.5625 218.695312 225.164062 217.421875 226.707031 C 216.144531 228.25 214.796875 229.726562 213.375 231.136719 C 212.917969 231.464844 212.503906 231.839844 212.128906 232.257812 C 211.753906 232.679688 211.425781 233.132812 211.152344 233.625 C 210.875 234.117188 210.65625 234.632812 210.496094 235.171875 C 210.332031 235.710938 210.230469 236.261719 210.1875 236.820312 C 210.144531 237.382812 210.164062 237.941406 210.246094 238.5 C 210.324219 239.054688 210.464844 239.597656 210.664062 240.125 C 210.863281 240.652344 211.117188 241.152344 211.425781 241.621094 C 211.734375 242.09375 212.089844 242.523438 212.492188 242.917969 C 212.894531 243.3125 213.335938 243.65625 213.8125 243.953125 C 214.289062 244.25 214.792969 244.488281 215.324219 244.675781 C 215.855469 244.859375 216.402344 244.988281 216.960938 245.054688 C 217.519531 245.121094 218.078125 245.125 218.636719 245.070312 C 219.195312 245.011719 219.742188 244.894531 220.277344 244.71875 C 220.8125 244.542969 221.320312 244.3125 221.804688 244.023438 C 222.289062 243.738281 222.734375 243.398438 223.144531 243.015625 C 223.554688 242.628906 223.917969 242.203125 224.234375 241.738281 C 225.117188 240.855469 225.976562 239.953125 226.816406 239.027344 C 227.65625 238.101562 228.472656 237.15625 229.265625 236.191406 C 230.058594 235.226562 230.828125 234.246094 231.574219 233.242188 C 232.316406 232.238281 233.039062 231.21875 233.730469 230.179688 C 234.425781 229.140625 235.09375 228.085938 235.738281 227.015625 C 236.378906 225.945312 236.996094 224.859375 237.585938 223.757812 C 238.175781 222.65625 238.738281 221.542969 239.273438 220.414062 C 239.804688 219.28125 240.3125 218.140625 240.792969 216.988281 C 241.269531 215.832031 241.71875 214.667969 242.140625 213.492188 C 242.5625 212.316406 242.953125 211.128906 243.316406 209.933594 C 243.679688 208.738281 244.015625 207.535156 244.316406 206.324219 C 244.621094 205.113281 244.894531 203.894531 245.140625 202.667969 C 245.382812 201.441406 245.597656 200.210938 245.78125 198.976562 C 245.964844 197.738281 246.117188 196.5 246.238281 195.257812 C 246.363281 194.011719 246.453125 192.769531 246.515625 191.519531 C 246.578125 190.273438 246.605469 189.023438 246.605469 187.773438 C 246.605469 186.523438 246.578125 185.277344 246.515625 184.027344 C 246.453125 182.78125 246.363281 181.535156 246.238281 180.289062 C 246.117188 179.046875 245.964844 177.808594 245.78125 176.570312 C 245.597656 175.335938 245.382812 174.105469 245.140625 172.878906 C 244.894531 171.65625 244.621094 170.4375 244.316406 169.222656 C 244.015625 168.011719 243.679688 166.808594 243.316406 165.613281 C 242.953125 164.417969 242.5625 163.230469 242.140625 162.054688 C 241.71875 160.878906 241.269531 159.714844 240.792969 158.558594 C 240.3125 157.40625 239.804688 156.265625 239.273438 155.136719 C 238.738281 154.007812 238.175781 152.890625 237.585938 151.789062 C 236.996094 150.6875 236.378906 149.601562 235.738281 148.53125 C 235.09375 147.460938 234.425781 146.40625 233.730469 145.367188 C 233.039062 144.328125 232.316406 143.308594 231.574219 142.304688 C 230.828125 141.304688 230.058594 140.320312 229.265625 139.355469 C 228.472656 138.390625 227.65625 137.445312 226.816406 136.519531 C 225.976562 135.597656 225.117188 134.691406 224.234375 133.808594 Z M 224.234375 133.808594 " fill-opacity="1" fill-rule="nonzero"/><g clip-path="url(#904a2fa33d)"><path fill="#000000" d="M 244.949219 113.074219 C 244.597656 112.6875 244.210938 112.339844 243.789062 112.03125 C 243.367188 111.722656 242.921875 111.460938 242.445312 111.246094 C 241.972656 111.027344 241.480469 110.863281 240.972656 110.746094 C 240.460938 110.628906 239.949219 110.5625 239.425781 110.550781 C 238.90625 110.539062 238.386719 110.582031 237.875 110.675781 C 237.359375 110.769531 236.863281 110.910156 236.378906 111.105469 C 235.894531 111.300781 235.433594 111.542969 235 111.832031 C 234.566406 112.117188 234.164062 112.449219 233.796875 112.816406 C 233.425781 113.1875 233.101562 113.589844 232.8125 114.027344 C 232.527344 114.464844 232.289062 114.925781 232.09375 115.410156 C 231.902344 115.894531 231.761719 116.394531 231.667969 116.910156 C 231.578125 117.421875 231.539062 117.941406 231.550781 118.460938 C 231.566406 118.984375 231.632812 119.5 231.75 120.007812 C 231.867188 120.515625 232.035156 121.007812 232.253906 121.484375 C 232.472656 121.957031 232.738281 122.40625 233.046875 122.824219 C 233.355469 123.246094 233.703125 123.632812 234.089844 123.980469 C 235.136719 125.019531 236.160156 126.085938 237.15625 127.175781 C 238.152344 128.269531 239.121094 129.382812 240.0625 130.523438 C 241.003906 131.660156 241.917969 132.820312 242.800781 134.003906 C 243.683594 135.1875 244.539062 136.394531 245.363281 137.621094 C 246.1875 138.84375 246.980469 140.089844 247.746094 141.355469 C 248.507812 142.621094 249.238281 143.90625 249.9375 145.207031 C 250.636719 146.507812 251.304688 147.824219 251.941406 149.160156 C 252.574219 150.492188 253.175781 151.84375 253.746094 153.207031 C 254.3125 154.570312 254.847656 155.949219 255.347656 157.339844 C 255.847656 158.730469 256.3125 160.132812 256.742188 161.546875 C 257.175781 162.957031 257.570312 164.382812 257.929688 165.816406 C 258.292969 167.25 258.617188 168.6875 258.90625 170.136719 C 259.195312 171.585938 259.449219 173.042969 259.667969 174.503906 C 259.886719 175.964844 260.066406 177.433594 260.214844 178.902344 C 260.359375 180.375 260.46875 181.847656 260.542969 183.324219 C 260.613281 184.800781 260.652344 186.277344 260.652344 187.753906 C 260.652344 189.234375 260.613281 190.710938 260.542969 192.1875 C 260.46875 193.660156 260.359375 195.136719 260.214844 196.605469 C 260.066406 198.078125 259.886719 199.542969 259.667969 201.003906 C 259.449219 202.464844 259.195312 203.921875 258.90625 205.371094 C 258.617188 206.820312 258.292969 208.261719 257.929688 209.695312 C 257.570312 211.128906 257.175781 212.550781 256.742188 213.964844 C 256.3125 215.378906 255.847656 216.78125 255.347656 218.171875 C 254.847656 219.558594 254.3125 220.9375 253.746094 222.300781 C 253.175781 223.664062 252.574219 225.015625 251.941406 226.347656 C 251.304688 227.683594 250.636719 229 249.9375 230.304688 C 249.238281 231.605469 248.507812 232.886719 247.746094 234.152344 C 246.980469 235.417969 246.1875 236.664062 245.363281 237.890625 C 244.539062 239.117188 243.683594 240.320312 242.800781 241.503906 C 241.917969 242.6875 241.003906 243.847656 240.0625 244.988281 C 239.121094 246.125 238.152344 247.242188 237.15625 248.332031 C 236.160156 249.421875 235.136719 250.488281 234.089844 251.527344 C 233.730469 251.882812 233.410156 252.273438 233.128906 252.691406 C 232.84375 253.113281 232.605469 253.558594 232.410156 254.023438 C 232.214844 254.492188 232.066406 254.972656 231.96875 255.46875 C 231.867188 255.964844 231.816406 256.46875 231.8125 256.972656 C 231.8125 257.480469 231.859375 257.980469 231.957031 258.480469 C 232.054688 258.976562 232.199219 259.460938 232.390625 259.929688 C 232.582031 260.398438 232.816406 260.84375 233.097656 261.265625 C 233.375 261.6875 233.695312 262.078125 234.050781 262.4375 C 234.40625 262.796875 234.796875 263.117188 235.214844 263.398438 C 235.636719 263.683594 236.078125 263.921875 236.546875 264.117188 C 237.011719 264.3125 237.492188 264.460938 237.988281 264.5625 C 238.484375 264.660156 238.984375 264.714844 239.492188 264.714844 C 239.996094 264.714844 240.5 264.667969 240.996094 264.570312 C 241.492188 264.476562 241.972656 264.332031 242.441406 264.136719 C 242.910156 263.945312 243.355469 263.710938 243.777344 263.429688 C 244.199219 263.148438 244.589844 262.832031 244.949219 262.476562 C 246.175781 261.257812 247.371094 260.007812 248.539062 258.730469 C 249.707031 257.453125 250.839844 256.144531 251.941406 254.8125 C 253.042969 253.476562 254.113281 252.117188 255.148438 250.730469 C 256.183594 249.34375 257.183594 247.933594 258.148438 246.496094 C 259.113281 245.0625 260.042969 243.601562 260.933594 242.121094 C 261.828125 240.636719 262.683594 239.132812 263.503906 237.609375 C 264.324219 236.085938 265.105469 234.542969 265.847656 232.980469 C 266.589844 231.417969 267.292969 229.835938 267.960938 228.238281 C 268.625 226.640625 269.25 225.027344 269.835938 223.398438 C 270.421875 221.769531 270.964844 220.128906 271.472656 218.472656 C 271.976562 216.816406 272.4375 215.148438 272.863281 213.46875 C 273.285156 211.792969 273.664062 210.105469 274.003906 208.40625 C 274.34375 206.710938 274.640625 205.003906 274.894531 203.292969 C 275.152344 201.582031 275.363281 199.863281 275.535156 198.140625 C 275.703125 196.417969 275.832031 194.691406 275.917969 192.964844 C 276.003906 191.234375 276.046875 189.503906 276.046875 187.773438 C 276.046875 186.042969 276.003906 184.3125 275.917969 182.585938 C 275.832031 180.855469 275.703125 179.128906 275.535156 177.40625 C 275.363281 175.683594 275.152344 173.96875 274.894531 172.253906 C 274.640625 170.542969 274.34375 168.839844 274.003906 167.140625 C 273.664062 165.445312 273.285156 163.753906 272.863281 162.078125 C 272.4375 160.398438 271.976562 158.730469 271.472656 157.074219 C 270.964844 155.421875 270.421875 153.777344 269.835938 152.148438 C 269.25 150.519531 268.625 148.90625 267.960938 147.308594 C 267.292969 145.710938 266.589844 144.132812 265.847656 142.570312 C 265.105469 141.003906 264.324219 139.460938 263.503906 137.9375 C 262.683594 136.414062 261.828125 134.910156 260.933594 133.429688 C 260.042969 131.945312 259.113281 130.488281 258.148438 129.050781 C 257.183594 127.613281 256.183594 126.203125 255.148438 124.816406 C 254.113281 123.429688 253.042969 122.070312 251.941406 120.734375 C 250.839844 119.402344 249.707031 118.09375 248.539062 116.816406 C 247.371094 115.539062 246.175781 114.292969 244.949219 113.074219 Z M 244.949219 113.074219 " fill-opacity="1" fill-rule="nonzero"/></g><path fill="#000000" d="M 202.515625 155.242188 C 202.15625 154.882812 201.765625 154.566406 201.34375 154.285156 C 200.925781 154.007812 200.480469 153.769531 200.011719 153.578125 C 199.542969 153.386719 199.058594 153.242188 198.5625 153.144531 C 198.066406 153.046875 197.566406 153 197.058594 153 C 196.554688 153.003906 196.054688 153.054688 195.558594 153.15625 C 195.0625 153.253906 194.582031 153.402344 194.113281 153.597656 C 193.648438 153.792969 193.203125 154.035156 192.785156 154.316406 C 192.363281 154.597656 191.976562 154.921875 191.621094 155.28125 C 191.261719 155.640625 190.945312 156.03125 190.664062 156.453125 C 190.386719 156.875 190.152344 157.320312 189.957031 157.789062 C 189.765625 158.257812 189.621094 158.738281 189.523438 159.238281 C 189.429688 159.734375 189.378906 160.234375 189.382812 160.742188 C 189.382812 161.25 189.433594 161.75 189.535156 162.246094 C 189.636719 162.742188 189.785156 163.226562 189.980469 163.691406 C 190.175781 164.160156 190.414062 164.601562 190.695312 165.023438 C 190.980469 165.441406 191.300781 165.832031 191.660156 166.1875 C 192.371094 166.894531 193.042969 167.632812 193.683594 168.402344 C 194.320312 169.175781 194.917969 169.976562 195.476562 170.808594 C 196.035156 171.640625 196.554688 172.496094 197.027344 173.378906 C 197.503906 174.261719 197.933594 175.164062 198.316406 176.089844 C 198.703125 177.015625 199.039062 177.957031 199.332031 178.914062 C 199.625 179.871094 199.871094 180.84375 200.066406 181.824219 C 200.261719 182.808594 200.410156 183.796875 200.507812 184.792969 C 200.605469 185.792969 200.65625 186.792969 200.65625 187.792969 C 200.65625 188.796875 200.605469 189.792969 200.507812 190.792969 C 200.410156 191.789062 200.261719 192.777344 200.066406 193.761719 C 199.871094 194.742188 199.625 195.714844 199.332031 196.671875 C 199.039062 197.628906 198.703125 198.570312 198.316406 199.496094 C 197.933594 200.421875 197.503906 201.324219 197.027344 202.207031 C 196.554688 203.089844 196.035156 203.945312 195.476562 204.777344 C 194.917969 205.609375 194.320312 206.410156 193.683594 207.183594 C 193.042969 207.953125 192.371094 208.691406 191.660156 209.398438 C 191.300781 209.753906 190.976562 210.144531 190.695312 210.5625 C 190.414062 210.984375 190.171875 211.425781 189.976562 211.894531 C 189.78125 212.363281 189.632812 212.84375 189.535156 213.339844 C 189.433594 213.835938 189.382812 214.339844 189.378906 214.84375 C 189.378906 215.351562 189.425781 215.851562 189.523438 216.351562 C 189.617188 216.847656 189.761719 217.332031 189.957031 217.800781 C 190.148438 218.269531 190.382812 218.714844 190.664062 219.136719 C 190.941406 219.558594 191.261719 219.949219 191.617188 220.308594 C 191.972656 220.667969 192.363281 220.988281 192.78125 221.273438 C 193.203125 221.554688 193.644531 221.792969 194.113281 221.988281 C 194.578125 222.183594 195.058594 222.332031 195.554688 222.433594 C 196.050781 222.535156 196.554688 222.585938 197.058594 222.585938 C 197.566406 222.589844 198.066406 222.542969 198.5625 222.445312 C 199.058594 222.347656 199.542969 222.203125 200.011719 222.007812 C 200.480469 221.816406 200.925781 221.582031 201.34375 221.300781 C 201.765625 221.019531 202.15625 220.703125 202.515625 220.34375 C 203.585938 219.28125 204.605469 218.167969 205.566406 217.007812 C 206.527344 215.84375 207.425781 214.636719 208.269531 213.382812 C 209.113281 212.128906 209.890625 210.839844 210.605469 209.511719 C 211.320312 208.179688 211.964844 206.820312 212.546875 205.425781 C 213.125 204.03125 213.636719 202.613281 214.078125 201.171875 C 214.515625 199.726562 214.886719 198.265625 215.179688 196.785156 C 215.476562 195.304688 215.699219 193.8125 215.847656 192.3125 C 215.996094 190.808594 216.070312 189.300781 216.070312 187.792969 C 216.070312 186.285156 215.996094 184.777344 215.847656 183.277344 C 215.699219 181.773438 215.476562 180.28125 215.179688 178.800781 C 214.886719 177.320312 214.515625 175.859375 214.078125 174.414062 C 213.636719 172.972656 213.125 171.554688 212.546875 170.160156 C 211.964844 168.765625 211.320312 167.40625 210.605469 166.074219 C 209.890625 164.746094 209.113281 163.457031 208.269531 162.203125 C 207.425781 160.949219 206.527344 159.742188 205.566406 158.582031 C 204.605469 157.417969 203.585938 156.304688 202.515625 155.242188 Z M 202.515625 155.242188 " fill-opacity="1" fill-rule="nonzero"/></svg>